<svg width="254" height="254" viewBox="0 0 254 254" fill="none" xmlns="http://www.w3.org/2000/svg">
<path d="M63.9004 225.461L80.9555 176.181H173.576L194.14 225.461H63.9004Z" fill="#D4D5F9"/>
<path d="M127.262 193.78C170.031 193.78 204.702 159.109 204.702 116.34C204.702 73.5715 170.031 38.9004 127.262 38.9004C84.4934 38.9004 49.8223 73.5715 49.8223 116.34C49.8223 159.109 84.4934 193.78 127.262 193.78Z" fill="#2E2E2E"/>
<path d="M197.663 24.8223H176.543V45.9423H197.663V24.8223Z" fill="#D4D5F9"/>
<path d="M225.819 52.9814H204.699V74.1015H225.819V52.9814Z" fill="#D4D5F9"/>
<path d="M169.501 70.5811H148.381V91.7011H169.501V70.5811Z" fill="white"/>
<path d="M141.339 98.7422H120.219V119.862H141.339V98.7422Z" fill="white"/>
</svg>
