<svg width="16" height="16" viewBox="0 0 16 16" fill="none" xmlns="http://www.w3.org/2000/svg">
<path d="M14.2256 5.55193L10.4209 4.99724L8.72039 1.54932C8.4157 0.934738 7.53289 0.926925 7.2256 1.54932L5.52508 4.99724L1.72039 5.55193C1.0381 5.65088 0.764661 6.49203 1.25945 6.9738L4.01206 9.65609L3.36101 13.4452C3.24383 14.13 3.96518 14.6431 4.56935 14.3228L7.97299 12.5337L11.3766 14.3228C11.9808 14.6405 12.7022 14.13 12.585 13.4452L11.9339 9.65609L14.6865 6.9738C15.1813 6.49203 14.9079 5.65088 14.2256 5.55193ZM10.5928 9.21859L11.21 12.8228L7.97299 11.1222L4.73601 12.8228L5.3532 9.21859L2.73341 6.66651L6.3532 6.14047L7.97299 2.85922L9.59279 6.14047L13.2126 6.66651L10.5928 9.21859Z" fill="#888888"/>
</svg>
