<svg width="24" height="24" viewBox="0 0 24 24" fill="none" xmlns="http://www.w3.org/2000/svg">
    <path
        d="M20.2959 14.2041L12.7959 6.70414C12.6914 6.59926 12.5672 6.51605 12.4304 6.45927C12.2937 6.40248 12.1471 6.37326 11.999 6.37326C11.851 6.37326 11.7043 6.40248 11.5676 6.45927C11.4309 6.51605 11.3067 6.59926 11.2021 6.70414L3.70215 14.2041C3.4908 14.4155 3.37207 14.7021 3.37207 15.001C3.37207 15.2999 3.4908 15.5865 3.70215 15.7979C3.91349 16.0092 4.20014 16.128 4.49902 16.128C4.79791 16.128 5.08455 16.0092 5.2959 15.7979L12 9.09383L18.704 15.7988C18.9154 16.0102 19.202 16.1289 19.5009 16.1289C19.7998 16.1289 20.0864 16.0102 20.2978 15.7988C20.5091 15.5875 20.6278 15.3008 20.6278 15.002C20.6278 14.7031 20.5091 14.4164 20.2978 14.2051L20.2959 14.2041Z"
        fill="#D4D5F9" />
</svg>