<svg width="259" height="258" viewBox="0 0 259 258" fill="none" xmlns="http://www.w3.org/2000/svg">
<path d="M29.3496 61.1675H193.823V218.49H57.9537C42.156 218.49 29.3496 205.684 29.3496 189.886V61.1675Z" fill="#2E2E2E"/>
<path d="M86.5547 82.6201H229.575V218.49H158.065C118.571 218.49 86.5547 186.473 86.5547 146.979V82.6201Z" fill="#2E2E2E"/>
<path d="M29.3496 61.1675C29.3496 49.3193 38.9545 39.7144 50.8027 39.7144H193.823V82.6206H50.8027C38.9545 82.6206 29.3496 73.0156 29.3496 61.1675Z" fill="#D4D5F9"/>
<path d="M158.066 125.527H229.577V175.584H158.066V125.527Z" fill="#D4D5F9"/>
<path d="M193.824 161.281C199.748 161.281 204.551 156.479 204.551 150.555C204.551 144.631 199.748 139.828 193.824 139.828C187.9 139.828 183.098 144.631 183.098 150.555C183.098 156.479 187.9 161.281 193.824 161.281Z" fill="#D4D5F9"/>
</svg>
