<svg width="1400" height="275" viewBox="0 0 1400 275" fill="none" xmlns="http://www.w3.org/2000/svg">
    <g clip-path="url(#clip0_12_105)">
        <rect width="1400" height="275" rx="13.414" fill="black" />
        <path
            d="M168.888 185.249C169.053 185.027 169.007 184.714 168.785 184.55L165.172 181.867C164.95 181.703 164.637 181.749 164.472 181.971C164.308 182.192 164.354 182.506 164.576 182.67L167.787 185.055L165.403 188.266C165.238 188.488 165.285 188.801 165.506 188.966C165.728 189.13 166.041 189.084 166.206 188.862L168.888 185.249ZM62.0819 223.75C63.7264 223.663 65.3197 223.554 66.8649 223.425L66.7815 222.428C65.2467 222.557 63.6635 222.665 62.0289 222.752L62.0819 223.75ZM76.3719 222.289C79.7539 221.752 82.8747 221.103 85.7817 220.358L85.5335 219.389C82.658 220.126 79.5678 220.769 76.2152 221.301L76.3719 222.289ZM94.9165 217.482C98.0667 216.292 100.956 214.983 103.683 213.591L103.228 212.701C100.531 214.077 97.675 215.371 94.5631 216.547L94.9165 217.482ZM112.018 208.876C114.737 207.211 117.391 205.494 120.092 203.783L119.557 202.939C116.845 204.656 114.206 206.364 111.496 208.023L112.018 208.876ZM128.23 198.847C130.866 197.349 133.649 195.888 136.67 194.499L136.252 193.591C133.2 194.994 130.393 196.468 127.736 197.978L128.23 198.847ZM145.458 190.955C148.272 189.972 151.294 189.053 154.569 188.218L154.322 187.249C151.019 188.091 147.97 189.018 145.128 190.011L145.458 190.955ZM163.86 186.214C165.378 185.941 166.943 185.685 168.56 185.446L168.414 184.456C166.787 184.697 165.211 184.955 163.684 185.229L163.86 186.214ZM169.29 185.547C169.619 185.104 169.526 184.477 169.083 184.148L161.856 178.784C161.413 178.454 160.787 178.547 160.457 178.99C160.128 179.434 160.221 180.06 160.664 180.389L167.088 185.158L162.319 191.581C161.99 192.025 162.083 192.651 162.526 192.98C162.969 193.31 163.596 193.217 163.925 192.774L169.29 185.547ZM62.1084 224.25C63.7578 224.162 65.3562 224.053 66.9067 223.923L66.7397 221.93C65.2102 222.058 63.6321 222.166 62.0024 222.252L62.1084 224.25ZM76.4502 222.783C79.847 222.244 82.9831 221.591 85.9058 220.842L85.4094 218.905C82.5496 219.638 79.4747 220.278 76.1369 220.807L76.4502 222.783ZM95.0932 217.95C98.2626 216.753 101.169 215.435 103.91 214.037L103.001 212.255C100.318 213.624 97.4792 214.911 94.3864 216.079L95.0932 217.95ZM112.279 209.302C115.002 207.635 117.664 205.913 120.36 204.206L119.289 202.516C116.572 204.237 113.941 205.94 111.235 207.596L112.279 209.302ZM128.477 199.282C131.103 197.79 133.873 196.336 136.879 194.954L136.044 193.136C132.976 194.546 130.156 196.028 127.489 197.543L128.477 199.282ZM145.623 191.427C148.424 190.449 151.431 189.534 154.693 188.702L154.198 186.765C150.882 187.61 147.819 188.541 144.963 189.539L145.623 191.427ZM163.949 186.706C165.461 186.434 167.021 186.179 168.633 185.94L168.341 183.962C166.709 184.203 165.128 184.462 163.595 184.737L163.949 186.706Z"
            fill="white" fill-opacity="0.6" />
        <path d="M57.1694 231.557L43.6182 217.876M43 231.557L56.5512 217.876" stroke="white"
            stroke-opacity="0.6" stroke-width="2" />
        <path d="M193 187.583L179.449 173.902M178.831 187.583L192.382 173.902" stroke="white"
            stroke-opacity="0.6" stroke-width="2" />
        <path
            d="M1234.52 54.266C1234.38 54.0302 1234.45 53.6982 1234.66 53.5243L1238.2 50.6905C1238.42 50.5166 1238.71 50.5667 1238.85 50.8024C1238.99 51.0382 1238.93 51.3703 1238.71 51.5441L1235.56 54.0631L1237.59 57.4779C1237.73 57.7136 1237.67 58.0457 1237.45 58.2196C1237.23 58.3935 1236.94 58.3433 1236.8 58.1076L1234.52 54.266ZM1325.68 92.7806C1323.95 92.6728 1322.29 92.5321 1320.68 92.3606L1320.83 91.3044C1322.42 91.4746 1324.07 91.6143 1325.79 91.7213L1325.68 92.7806ZM1310.82 90.7779C1307.31 90.0043 1304.14 89.0556 1301.23 87.9692L1301.58 86.9594C1304.45 88.0323 1307.58 88.9704 1311.05 89.736L1310.82 90.7779ZM1292.12 83.7458C1289.08 82.0489 1286.3 80.2056 1283.61 78.2936L1284.14 77.3845C1286.81 79.2857 1289.57 81.1106 1292.58 82.7879L1292.12 83.7458ZM1275.45 72.2747C1272.82 70.3323 1270.11 68.3982 1267.17 66.5397L1267.66 65.605C1270.63 67.4794 1273.35 69.4275 1275.99 71.3747L1275.45 72.2747ZM1258.44 61.7139C1255.65 60.3869 1252.61 59.1476 1249.25 58.0319L1249.56 57.0121C1252.96 58.1384 1256.03 59.3902 1258.85 60.7313L1258.44 61.7139ZM1239.7 55.4297C1238.13 55.0872 1236.51 54.7684 1234.82 54.4756L1235.02 53.4266C1236.72 53.7214 1238.35 54.0425 1239.93 54.3876L1239.7 55.4297ZM1234.13 54.5808C1233.85 54.1094 1233.98 53.4452 1234.41 53.0974L1241.49 47.4298C1241.92 47.082 1242.5 47.1823 1242.78 47.6538C1243.06 48.1252 1242.94 48.7894 1242.5 49.1372L1236.21 54.1751L1240.26 61.0046C1240.54 61.4761 1240.41 62.1403 1239.98 62.4881C1239.54 62.8358 1238.97 62.7356 1238.69 62.2641L1234.13 54.5808ZM1325.63 93.3102C1323.89 93.2021 1322.22 93.0609 1320.61 92.8887L1320.9 90.7762C1322.49 90.9458 1324.13 91.085 1325.85 91.1917L1325.63 93.3102ZM1310.7 91.2988C1307.17 90.5213 1303.99 89.5673 1301.06 88.4741L1301.75 86.4545C1304.6 87.5206 1307.72 88.4534 1311.17 89.2151L1310.7 91.2988ZM1291.9 84.2248C1288.84 82.5181 1286.04 80.6656 1283.34 78.7481L1284.4 76.9299C1287.07 78.8257 1289.82 80.6414 1292.81 82.3089L1291.9 84.2248ZM1275.17 72.7248C1272.55 70.7847 1269.85 68.8576 1266.92 67.0071L1267.91 65.1377C1270.89 67.0201 1273.62 68.975 1276.26 70.9246L1275.17 72.7248ZM1258.24 62.2052C1255.46 60.8852 1252.44 59.6522 1249.09 58.5418L1249.72 56.5022C1253.13 57.6338 1256.22 58.8918 1259.06 60.24L1258.24 62.2052ZM1239.58 55.9507C1238.02 55.6095 1236.4 55.2919 1234.72 55.0001L1235.12 52.9022C1236.82 53.198 1238.47 53.5201 1240.05 53.8665L1239.58 55.9507Z"
            fill="white" fill-opacity="0.6" />
        <path d="M1329.91 100.557L1341.47 86.876M1342 100.557L1330.44 86.876" stroke="white"
            stroke-opacity="0.6" stroke-width="2" />
        <path d="M1214 56.5829L1225.56 42.9021M1226.09 56.5829L1214.53 42.9021" stroke="white"
            stroke-opacity="0.6" stroke-width="2" />
        <path
            d="M338.369 183V114.25H350.619V127.375H350.869C351.452 122.792 353.327 119.25 356.494 116.75C359.744 114.25 363.994 113 369.244 113C376.327 113 381.994 115.292 386.244 119.875C390.494 124.458 392.619 130.625 392.619 138.375V143.375H380.119V139.375C380.119 134.458 378.827 130.625 376.244 127.875C373.744 125.125 370.036 123.75 365.119 123.75C355.536 123.75 350.744 129.042 350.744 139.625V183H338.369ZM437.695 184C429.279 184 422.612 181.667 417.695 177C412.779 172.25 410.32 165.792 410.32 157.625V139.625C410.32 131.458 412.779 125.042 417.695 120.375C422.612 115.625 429.279 113.25 437.695 113.25C446.112 113.25 452.779 115.625 457.695 120.375C462.612 125.042 465.07 131.417 465.07 139.5V157.625C465.07 165.792 462.612 172.25 457.695 177C452.779 181.667 446.112 184 437.695 184ZM437.695 173.125C442.362 173.125 446.029 171.833 448.695 169.25C451.362 166.583 452.695 162.708 452.695 157.625V139.625C452.695 134.542 451.362 130.708 448.695 128.125C446.029 125.458 442.362 124.125 437.695 124.125C433.029 124.125 429.362 125.458 426.695 128.125C424.029 130.708 422.695 134.542 422.695 139.625V157.625C422.695 162.708 424.029 166.583 426.695 169.25C429.362 171.833 433.029 173.125 437.695 173.125ZM522.896 183C516.646 183 511.646 181.167 507.896 177.5C504.146 173.833 502.271 168.958 502.271 162.875V103H478.771V91.75H514.646V162.75C514.646 165.5 515.396 167.708 516.896 169.375C518.48 170.958 520.605 171.75 523.271 171.75H544.146V183H522.896ZM597.848 183C591.598 183 586.598 181.167 582.848 177.5C579.098 173.833 577.223 168.958 577.223 162.875V103H553.723V91.75H589.598V162.75C589.598 165.5 590.348 167.708 591.848 169.375C593.431 170.958 595.556 171.75 598.223 171.75H619.098V183H597.848ZM662.549 184.25C654.215 184.25 647.632 181.917 642.799 177.25C637.965 172.5 635.549 166 635.549 157.75V116.875C635.549 108.708 637.965 102.292 642.799 97.625C647.632 92.875 654.215 90.5 662.549 90.5C670.882 90.5 677.465 92.875 682.299 97.625C687.132 102.292 689.549 108.708 689.549 116.875V157.75C689.549 166 687.132 172.5 682.299 177.25C677.465 181.917 670.882 184.25 662.549 184.25ZM662.549 173.25C667.215 173.25 670.799 171.917 673.299 169.25C675.882 166.583 677.174 162.75 677.174 157.75V116.875C677.174 111.958 675.924 108.167 673.424 105.5C670.924 102.833 667.299 101.5 662.549 101.5C657.799 101.5 654.174 102.833 651.674 105.5C649.174 108.167 647.924 111.958 647.924 116.875V157.75C647.924 162.75 649.174 166.583 651.674 169.25C654.257 171.917 657.882 173.25 662.549 173.25ZM711 183V114.25H723.25V127.375H723.5C724.083 122.792 725.958 119.25 729.125 116.75C732.292 114.25 736.5 113 741.75 113C748.583 113 754.042 115.167 758.125 119.5C762.208 123.833 764.25 129.667 764.25 137V183H751.875V138.375C751.875 133.708 750.625 130.125 748.125 127.625C745.625 125.042 742.208 123.75 737.875 123.75C733.375 123.75 729.833 125.125 727.25 127.875C724.667 130.542 723.375 134.375 723.375 139.375V183H711Z"
            fill="white" />
        <path
            d="M786.326 183V91.75H840.826V103.125H798.451V131.875H837.576V143.125H798.701V183H786.326ZM897.652 183C891.402 183 886.402 181.167 882.652 177.5C878.902 173.833 877.027 168.958 877.027 162.875V103H853.527V91.75H889.402V162.75C889.402 165.5 890.152 167.708 891.652 169.375C893.236 170.958 895.361 171.75 898.027 171.75H918.902V183H897.652ZM962.354 184C953.937 184 947.27 181.667 942.354 177C937.437 172.25 934.979 165.792 934.979 157.625V139.625C934.979 131.458 937.437 125.042 942.354 120.375C947.27 115.625 953.937 113.25 962.354 113.25C970.77 113.25 977.437 115.625 982.354 120.375C987.27 125.042 989.729 131.417 989.729 139.5V157.625C989.729 165.792 987.27 172.25 982.354 177C977.437 181.667 970.77 184 962.354 184ZM962.354 173.125C967.02 173.125 970.687 171.833 973.354 169.25C976.02 166.583 977.354 162.708 977.354 157.625V139.625C977.354 134.542 976.02 130.708 973.354 128.125C970.687 125.458 967.02 124.125 962.354 124.125C957.687 124.125 954.02 125.458 951.354 128.125C948.687 130.708 947.354 134.542 947.354 139.625V157.625C947.354 162.708 948.687 166.583 951.354 169.25C954.02 171.833 957.687 173.125 962.354 173.125ZM1014.55 183L1003.68 114.25H1014.18L1020.8 161.25C1021.05 163.25 1021.26 165.458 1021.43 167.875C1021.68 170.208 1021.89 172.125 1022.05 173.625H1022.55C1022.72 172.042 1022.93 170.083 1023.18 167.75C1023.51 165.417 1023.85 163.25 1024.18 161.25L1031.43 114.25H1043.18L1050.43 161.25C1050.76 163.333 1051.05 165.542 1051.3 167.875C1051.64 170.125 1051.89 172.042 1052.05 173.625H1052.55C1052.8 172.125 1053.05 170.208 1053.3 167.875C1053.55 165.458 1053.8 163.25 1054.05 161.25L1060.93 114.25H1070.93L1059.55 183H1046.3L1039.18 136.75C1038.85 134.5 1038.51 132.167 1038.18 129.75C1037.85 127.25 1037.6 125.25 1037.43 123.75H1036.93C1036.76 125.25 1036.51 127.25 1036.18 129.75C1035.93 132.167 1035.64 134.5 1035.3 136.75L1027.93 183H1014.55Z"
            fill="#1DB954" />
        <path
            d="M240.24 85.9637L239.635 74.8928L245.647 73.5978L245.675 74.2976L240.396 75.4347L240.644 79.8618L245.41 78.8352L245.452 79.5318L240.687 80.5584L240.973 85.8058L240.24 85.9637ZM251.762 83.6352C251.166 83.7636 250.647 83.7526 250.205 83.6023C249.762 83.4421 249.414 83.1589 249.163 82.7527C248.912 82.3465 248.766 81.8357 248.725 81.2205L248.584 78.6423C248.554 78.025 248.639 77.4696 248.839 76.9763C249.048 76.4711 249.36 76.0458 249.777 75.7003C250.193 75.3549 250.7 75.1179 251.296 74.9894C251.892 74.861 252.407 74.8779 252.841 75.0402C253.275 75.2024 253.618 75.4867 253.869 75.8929C254.128 76.2872 254.273 76.7931 254.303 77.4105L254.383 78.8509L249.398 79.9248L249.459 81.0625C249.503 81.7895 249.721 82.3257 250.112 82.671C250.504 83.0163 251.041 83.1153 251.726 82.9678C252.273 82.8499 252.714 82.6169 253.048 82.2687C253.392 81.9184 253.622 81.4904 253.738 80.9846L254.471 80.8267C254.398 81.2926 254.244 81.7195 254.011 82.1074C253.777 82.4952 253.469 82.8224 253.087 83.089C252.712 83.3436 252.27 83.5257 251.762 83.6352ZM253.616 78.4945L253.57 77.5684C253.526 76.8414 253.308 76.3052 252.917 75.9599C252.535 75.6125 252.007 75.5114 251.332 75.6567C250.648 75.8042 250.13 76.1305 249.779 76.6359C249.425 77.1314 249.271 77.7476 249.318 78.4844L249.365 79.2722L253.778 78.3214L253.616 78.4945ZM260.555 81.7412C259.958 81.8696 259.439 81.8587 258.998 81.7083C258.554 81.5481 258.207 81.2649 257.955 80.8587C257.704 80.4525 257.558 79.9417 257.518 79.3265L257.377 76.7484C257.346 76.131 257.431 75.5756 257.632 75.0823C257.84 74.5771 258.153 74.1518 258.569 73.8063C258.986 73.4609 259.492 73.2239 260.088 73.0955C260.685 72.967 261.2 72.9839 261.634 73.1462C262.068 73.3084 262.41 73.5927 262.661 73.9989C262.92 74.3932 263.065 74.8991 263.096 75.5165L263.176 76.9569L258.19 78.0309L258.251 79.1685C258.295 79.8956 258.513 80.4317 258.905 80.777C259.296 81.1223 259.834 81.2213 260.518 81.0739C261.066 80.9559 261.506 80.7229 261.841 80.3747C262.185 80.0244 262.415 79.5964 262.531 79.0906L263.264 78.9327C263.19 79.3986 263.037 79.8255 262.803 80.2134C262.57 80.6013 262.262 80.9285 261.879 81.195C261.504 81.4496 261.063 81.6317 260.555 81.7412ZM262.409 76.6005L262.363 75.6744C262.318 74.9474 262.101 74.4112 261.709 74.0659C261.327 73.7185 260.799 73.6175 260.125 73.7628C259.441 73.9102 258.923 74.2365 258.571 74.7419C258.218 75.2375 258.064 75.8536 258.11 76.5904L258.157 77.3782L262.571 76.4274L262.409 76.6005ZM270.283 79.4921C269.628 79.6332 269.112 79.5653 268.736 79.2884C268.359 79.0115 268.151 78.5449 268.112 77.8884L267.65 69.5486L265.084 70.1013L265.059 69.4162L268.359 68.7055L268.845 77.7304C268.869 78.1753 268.998 78.4902 269.233 78.675C269.477 78.8577 269.814 78.9028 270.244 78.8101L272.81 78.2573L272.849 78.9393L270.283 79.4921ZM275.116 78.4509L275.077 77.769L278.024 77.1341L277.642 70.1582L275.061 70.7141L275.022 70.0322L278.336 69.3183L278.758 76.9761L281.529 76.3791L281.568 77.0611L275.116 78.4509ZM277.916 67.7976C277.662 67.8523 277.441 67.8232 277.253 67.7103C277.065 67.5973 276.944 67.4187 276.892 67.1743C276.839 66.9299 276.875 66.7175 277 66.5372C277.125 66.3569 277.314 66.2393 277.568 66.1846C277.823 66.1298 278.044 66.1589 278.232 66.2719C278.42 66.3848 278.54 66.5635 278.593 66.8079C278.645 67.0523 278.609 67.2646 278.484 67.4449C278.36 67.6253 278.17 67.7428 277.916 67.7976ZM284.129 76.5096L283.667 68.1698L284.401 68.0118L284.481 69.4523L284.818 69.3796L284.422 70.2475C284.38 69.5302 284.559 68.9137 284.959 68.3978C285.367 67.8701 285.928 67.5293 286.642 67.3756C287.434 67.205 288.08 67.3318 288.58 67.7559C289.091 68.1779 289.371 68.8387 289.422 69.7382L289.73 75.303L288.997 75.4609L288.696 70.0019C288.657 69.2533 288.443 68.7112 288.054 68.3756C287.672 68.0282 287.164 67.923 286.528 68.0598C285.883 68.1988 285.38 68.522 285.019 69.0295C284.667 69.5348 284.515 70.1559 284.561 70.8927L284.862 76.3516L284.129 76.5096ZM294.003 77.1445L293.978 76.4594L296.105 76.0014C296.681 75.8771 297.113 75.6256 297.4 75.2467C297.688 74.8776 297.815 74.3952 297.778 73.7995L297.739 73.1175L297.64 71.3744L297.376 71.4312L297.703 70.6703C297.748 71.3561 297.565 71.9531 297.153 72.4613C296.74 72.9695 296.182 73.2994 295.478 73.451C294.677 73.6237 294.019 73.4892 293.504 73.0477C292.988 72.5964 292.703 71.9161 292.65 71.0068L292.547 69.1724C292.518 68.5648 292.598 68.0105 292.787 67.5096C292.985 67.0065 293.278 66.5854 293.666 66.2462C294.053 65.907 294.515 65.6796 295.053 65.5637C295.757 65.4121 296.333 65.4978 296.781 65.8207C297.239 66.1414 297.485 66.6458 297.521 67.3337L297.188 66.7149L297.379 66.6738L297.299 65.2334L298.032 65.0755L298.512 73.6416C298.557 74.4706 298.374 75.1392 297.962 75.6474C297.561 76.1632 296.951 76.5096 296.129 76.6865L294.003 77.1445ZM295.592 72.7668C296.257 72.6236 296.761 72.3053 297.105 71.8118C297.456 71.3065 297.609 70.6854 297.563 69.9486L297.459 68.1143C297.411 67.3677 297.192 66.8267 296.803 66.4911C296.421 66.1437 295.898 66.0416 295.233 66.1848C294.578 66.3259 294.075 66.6491 293.723 67.1545C293.379 67.6479 293.232 68.2679 293.28 69.0145L293.384 70.8488C293.43 71.5856 293.644 72.1277 294.025 72.4751C294.415 72.8106 294.937 72.9079 295.592 72.7668ZM314.246 70.0222C313.591 70.1633 313.075 70.0954 312.698 69.8185C312.321 69.5416 312.113 69.0749 312.074 68.4185L311.613 60.0786L309.046 60.6314L309.022 59.9463L312.321 59.2356L312.807 68.2605C312.832 68.7054 312.961 69.0203 313.195 69.2051C313.439 69.3878 313.776 69.4328 314.206 69.3402L316.772 68.7874L316.812 69.4694L314.246 70.0222ZM322.072 68.4896C321.202 68.677 320.505 68.551 319.981 68.1116C319.455 67.6623 319.165 66.9576 319.111 65.9973L318.808 60.6002L319.541 60.4422L319.844 65.8394C319.885 66.5978 320.101 67.1497 320.493 67.495C320.884 67.8403 321.402 67.9435 322.048 67.8045C322.703 67.6634 323.201 67.3412 323.543 66.838C323.894 66.3326 324.049 65.7007 324.009 64.9423L323.706 59.5451L324.439 59.3872L324.742 64.7844C324.777 65.4213 324.691 65.9972 324.485 66.5122C324.287 67.0153 323.979 67.4396 323.562 67.785C323.156 68.1284 322.659 68.3633 322.072 68.4896ZM330.909 66.5862C330.322 66.7125 329.803 66.7015 329.352 66.5533C328.908 66.3931 328.556 66.111 328.295 65.7068C328.044 65.3006 327.898 64.7899 327.858 64.1746L327.717 61.5965C327.686 60.9791 327.776 60.4227 327.986 59.9273C328.194 59.4221 328.507 58.9968 328.923 58.6513C329.35 58.3037 329.856 58.0668 330.443 57.9404C331.332 57.7488 332.052 57.8598 332.601 58.2734C333.158 58.6751 333.46 59.3159 333.506 60.1959L332.773 60.3538C332.738 59.6659 332.514 59.172 332.101 58.8721C331.689 58.5722 331.145 58.4949 330.471 58.6402C329.806 58.7834 329.292 59.1039 328.929 59.6015C328.563 60.0894 328.404 60.7018 328.45 61.4386L328.591 64.0167C328.635 64.7437 328.861 65.2729 329.27 65.6042C329.679 65.9355 330.216 66.0295 330.881 65.8864C331.555 65.7411 332.073 65.4353 332.433 64.969C332.8 64.4909 332.967 63.9128 332.934 63.2347L333.667 63.0767C333.713 63.9567 333.488 64.7161 332.991 65.355C332.493 65.9841 331.798 66.3945 330.909 66.5862ZM336.928 65.1362L336.323 54.0653L337.056 53.9074L337.403 60.2924L339.324 59.8786L341.642 55.6814L342.537 55.4887L339.993 60.1335L343.057 63.8159L342.207 63.9991L339.393 60.5543L337.443 60.9744L337.661 64.9783L336.928 65.1362ZM346.655 65.8027L346.63 65.1176L348.757 64.6596C349.333 64.5353 349.76 64.2848 350.037 63.9081C350.326 63.539 350.457 63.0555 350.431 62.4577L350.372 61.473L350.292 60.0326L349.954 60.1052L350.351 59.2373C350.393 59.9546 350.214 60.576 349.816 61.1017C349.416 61.6175 348.854 61.9534 348.131 62.1092C347.339 62.2798 346.688 62.1541 346.177 61.7321C345.675 61.2982 345.399 60.6364 345.351 59.7466L345.083 54.9403L345.816 54.7824L346.076 59.4829C346.115 60.2316 346.33 60.7786 346.721 61.1239C347.111 61.4594 347.618 61.5598 348.244 61.425C348.889 61.286 349.388 60.9638 349.739 60.4585C350.1 59.9511 350.258 59.3289 350.212 58.5921L349.951 53.8916L350.684 53.7337L351.164 62.2998C351.209 63.1288 351.026 63.7974 350.614 64.3056C350.213 64.8214 349.603 65.1678 348.782 65.3447L346.655 65.8027ZM356.211 57.8368L356.07 55.2587L356.803 55.1008C357.517 54.947 358.074 54.6122 358.474 54.0964C358.873 53.5707 359.052 52.9542 359.012 52.2467C358.97 51.5295 358.724 51.0045 358.274 50.6718C357.824 50.3392 357.242 50.2497 356.528 50.4034L354.768 50.7825L354.744 50.0973L356.503 49.7183C357.432 49.5182 358.189 49.6365 358.774 50.0731C359.367 50.4978 359.69 51.1697 359.745 52.0888C359.786 52.704 359.692 53.2664 359.464 53.7758C359.236 54.2852 358.899 54.7158 358.453 55.0676C358.005 55.4096 357.469 55.648 356.843 55.7827L356.944 57.6789L356.211 57.8368ZM356.684 60.9572C356.44 61.0099 356.238 60.9766 356.079 60.8573C355.93 60.7359 355.849 60.5488 355.836 60.296C355.822 60.0432 355.883 59.8256 356.017 59.6432C356.162 59.4586 356.356 59.34 356.6 59.2874L356.674 59.2716C356.918 59.2189 357.115 59.2533 357.264 59.3747C357.422 59.4939 357.508 59.68 357.522 59.9328C357.536 60.1856 357.47 60.4043 357.326 60.5888C357.191 60.7713 357.002 60.8888 356.757 60.9414L356.684 60.9572Z"
            fill="white" fill-opacity="0.6" />
        <path
            d="M1030.15 242.023L1030.16 241.338L1032.32 241.019C1032.9 240.933 1033.35 240.71 1033.66 240.35C1033.97 240.001 1034.13 239.528 1034.13 238.931L1034.13 238.248L1034.15 236.502L1033.88 236.541L1034.26 235.803C1034.26 236.491 1034.04 237.074 1033.59 237.555C1033.15 238.035 1032.57 238.328 1031.86 238.433C1031.05 238.554 1030.4 238.377 1029.91 237.903C1029.43 237.419 1029.19 236.721 1029.19 235.81L1029.21 233.973C1029.22 233.365 1029.34 232.817 1029.56 232.33C1029.79 231.84 1030.11 231.439 1030.52 231.126C1030.93 230.813 1031.4 230.616 1031.95 230.535C1032.66 230.43 1033.23 230.553 1033.65 230.904C1034.09 231.254 1034.3 231.773 1034.29 232.462L1034 231.823L1034.19 231.794L1034.21 230.352L1034.95 230.242L1034.87 238.821C1034.86 239.651 1034.64 240.306 1034.19 240.787C1033.76 241.275 1033.13 241.581 1032.3 241.704L1030.15 242.023ZM1032.02 237.758C1032.69 237.658 1033.21 237.374 1033.59 236.903C1033.97 236.422 1034.16 235.812 1034.16 235.074L1034.18 233.237C1034.18 232.489 1034 231.935 1033.63 231.574C1033.27 231.203 1032.76 231.067 1032.08 231.167C1031.42 231.265 1030.9 231.555 1030.52 232.036C1030.14 232.506 1029.95 233.115 1029.95 233.863L1029.94 235.701C1029.93 236.439 1030.11 236.994 1030.47 237.365C1030.84 237.725 1031.35 237.856 1032.02 237.758ZM1040.94 237.846C1040.35 237.933 1039.85 237.886 1039.42 237.708C1038.98 237.519 1038.65 237.215 1038.42 236.794C1038.19 236.373 1038.08 235.853 1038.08 235.237L1038.11 232.655C1038.12 232.037 1038.24 231.488 1038.48 231.007C1038.73 230.516 1039.06 230.112 1039.5 229.795C1039.94 229.477 1040.45 229.275 1041.04 229.188C1041.62 229.102 1042.13 229.153 1042.56 229.342C1042.99 229.53 1043.33 229.835 1043.56 230.255C1043.79 230.665 1043.9 231.18 1043.89 231.798L1043.87 234.379C1043.87 234.996 1043.74 235.55 1043.49 236.042C1043.25 236.533 1042.91 236.937 1042.47 237.255C1042.04 237.561 1041.53 237.758 1040.94 237.846ZM1040.95 237.178C1041.63 237.077 1042.16 236.791 1042.53 236.321C1042.92 235.85 1043.11 235.239 1043.13 234.489L1043.15 231.908C1043.16 231.158 1042.98 230.604 1042.6 230.245C1042.23 229.886 1041.7 229.757 1041.03 229.857C1040.36 229.956 1039.83 230.242 1039.44 230.713C1039.06 231.185 1038.86 231.796 1038.85 232.545L1038.82 235.127C1038.81 235.877 1038.99 236.431 1039.36 236.792C1039.73 237.15 1040.26 237.279 1040.95 237.178ZM1058.93 235.181C1058.21 235.287 1057.63 235.165 1057.19 234.817C1056.75 234.467 1056.53 233.948 1056.53 233.261L1057.09 234.164L1056.68 234.225L1056.66 235.365L1055.92 235.475L1056.04 224.388L1056.78 224.278L1056.75 226.556L1056.73 228.152L1057 228.112L1056.58 229.16C1056.59 228.471 1056.82 227.886 1057.27 227.404C1057.73 226.922 1058.31 226.629 1059.02 226.523C1059.84 226.402 1060.49 226.584 1060.97 227.069C1061.45 227.553 1061.69 228.25 1061.69 229.161L1061.66 231.758C1061.66 232.364 1061.55 232.912 1061.32 233.401C1061.08 233.881 1060.76 234.277 1060.35 234.59C1059.95 234.903 1059.47 235.1 1058.93 235.181ZM1058.79 234.55C1059.45 234.451 1059.97 234.167 1060.34 233.697C1060.72 233.217 1060.91 232.607 1060.92 231.868L1060.95 229.271C1060.96 228.521 1060.78 227.967 1060.41 227.606C1060.04 227.236 1059.53 227.1 1058.86 227.199C1058.19 227.298 1057.67 227.588 1057.3 228.068C1056.92 228.538 1056.73 229.148 1056.72 229.898L1056.69 232.494C1056.68 233.234 1056.86 233.789 1057.23 234.159C1057.6 234.518 1058.12 234.648 1058.79 234.55ZM1064.6 234.189L1064.6 233.506L1067.58 233.064L1067.65 226.078L1065.04 226.465L1065.05 225.782L1068.4 225.285L1068.32 232.954L1071.13 232.539L1071.12 233.222L1064.6 234.189ZM1068.08 223.74C1067.82 223.779 1067.61 223.735 1067.43 223.61C1067.25 223.485 1067.14 223.299 1067.1 223.052C1067.06 222.805 1067.11 222.595 1067.25 222.423C1067.39 222.251 1067.58 222.146 1067.84 222.108C1068.1 222.07 1068.32 222.114 1068.5 222.238C1068.68 222.363 1068.78 222.55 1068.82 222.797C1068.86 223.044 1068.81 223.254 1068.67 223.426C1068.54 223.597 1068.34 223.702 1068.08 223.74ZM1074.63 235.432L1074.65 234.747L1076.8 234.428C1077.39 234.341 1077.83 234.118 1078.14 233.759C1078.45 233.409 1078.61 232.936 1078.61 232.339L1078.62 231.656L1078.63 229.91L1078.37 229.95L1078.74 229.212C1078.74 229.899 1078.52 230.483 1078.08 230.963C1077.63 231.444 1077.05 231.737 1076.34 231.842C1075.53 231.962 1074.88 231.785 1074.4 231.311C1073.91 230.827 1073.67 230.13 1073.68 229.219L1073.7 227.382C1073.71 226.774 1073.82 226.226 1074.04 225.738C1074.27 225.249 1074.59 224.848 1075 224.535C1075.41 224.221 1075.89 224.025 1076.43 223.944C1077.14 223.838 1077.71 223.961 1078.14 224.313C1078.57 224.663 1078.79 225.182 1078.78 225.871L1078.49 225.231L1078.68 225.203L1078.69 223.76L1079.44 223.65L1079.36 232.23C1079.35 233.06 1079.12 233.715 1078.68 234.195C1078.24 234.684 1077.61 234.99 1076.78 235.113L1074.63 235.432ZM1076.5 231.167C1077.17 231.067 1077.7 230.782 1078.07 230.312C1078.46 229.831 1078.65 229.221 1078.65 228.483L1078.67 226.645C1078.67 225.897 1078.48 225.343 1078.12 224.983C1077.76 224.612 1077.24 224.476 1076.57 224.575C1075.91 224.674 1075.38 224.963 1075 225.445C1074.63 225.915 1074.44 226.524 1074.44 227.272L1074.42 229.109C1074.42 229.847 1074.6 230.402 1074.96 230.774C1075.32 231.134 1075.84 231.265 1076.5 231.167ZM1094.32 229.937C1093.74 230.023 1093.23 229.977 1092.8 229.798C1092.37 229.609 1092.03 229.305 1091.8 228.885C1091.57 228.463 1091.46 227.944 1091.46 227.327L1091.49 224.745C1091.5 224.127 1091.62 223.578 1091.87 223.097C1092.11 222.607 1092.45 222.203 1092.88 221.885C1093.32 221.567 1093.83 221.365 1094.42 221.279C1095 221.192 1095.51 221.243 1095.94 221.432C1096.37 221.621 1096.71 221.925 1096.94 222.345C1097.17 222.756 1097.29 223.27 1097.28 223.888L1097.25 226.47C1097.25 227.086 1097.12 227.641 1096.87 228.133C1096.63 228.623 1096.29 229.028 1095.86 229.345C1095.43 229.651 1094.91 229.849 1094.32 229.937ZM1094.33 229.268C1095.01 229.167 1095.54 228.882 1095.91 228.411C1096.3 227.94 1096.5 227.329 1096.51 226.58L1096.53 223.998C1096.54 223.248 1096.36 222.694 1095.98 222.336C1095.61 221.977 1095.08 221.847 1094.41 221.947C1093.74 222.047 1093.21 222.332 1092.82 222.804C1092.44 223.275 1092.24 223.886 1092.23 224.636L1092.2 227.217C1092.19 227.967 1092.37 228.522 1092.74 228.882C1093.12 229.241 1093.65 229.369 1094.33 229.268ZM1100.66 228.846L1100.74 220.494L1101.48 220.384L1101.47 221.523L1101.8 221.475L1101.36 222.525C1101.36 221.806 1101.58 221.219 1101.99 220.763C1102.42 220.295 1103 220.007 1103.73 219.899C1104.6 219.77 1105.28 219.942 1105.78 220.414C1106.27 220.887 1106.52 221.589 1106.51 222.519L1106.51 222.975L1105.69 223.096L1105.7 222.64C1105.71 221.891 1105.53 221.336 1105.16 220.976C1104.8 220.606 1104.27 220.47 1103.6 220.57C1102.94 220.668 1102.42 220.958 1102.03 221.439C1101.66 221.909 1101.46 222.519 1101.45 223.269L1101.4 228.736L1100.66 228.846ZM1119.12 228.841L1119.13 228.155L1121.29 227.837C1121.87 227.75 1122.32 227.527 1122.63 227.168C1122.94 226.818 1123.1 226.345 1123.1 225.748L1123.1 225.065L1123.12 223.319L1122.85 223.359L1123.23 222.621C1123.23 223.308 1123.01 223.892 1122.56 224.372C1122.12 224.852 1121.54 225.145 1120.83 225.251C1120.02 225.371 1119.37 225.194 1118.88 224.72C1118.4 224.236 1118.16 223.539 1118.16 222.628L1118.18 220.791C1118.19 220.183 1118.31 219.635 1118.53 219.147C1118.76 218.658 1119.08 218.257 1119.49 217.943C1119.9 217.63 1120.37 217.433 1120.92 217.353C1121.63 217.247 1122.2 217.37 1122.62 217.721C1123.06 218.071 1123.27 218.591 1123.26 219.279L1122.97 218.64L1123.16 218.612L1123.18 217.169L1123.92 217.059L1123.84 225.638C1123.83 226.468 1123.61 227.124 1123.16 227.604C1122.73 228.093 1122.1 228.399 1121.27 228.522L1119.12 228.841ZM1120.99 224.575C1121.66 224.476 1122.18 224.191 1122.56 223.721C1122.94 223.239 1123.13 222.63 1123.14 221.891L1123.15 220.054C1123.15 219.306 1122.97 218.752 1122.6 218.392C1122.24 218.02 1121.73 217.884 1121.05 217.984C1120.39 218.082 1119.87 218.372 1119.49 218.853C1119.11 219.324 1118.92 219.933 1118.92 220.681L1118.91 222.518C1118.9 223.256 1119.08 223.811 1119.44 224.183C1119.81 224.543 1120.32 224.674 1120.99 224.575ZM1129.91 224.663C1129.32 224.75 1128.82 224.704 1128.39 224.525C1127.95 224.336 1127.62 224.032 1127.39 223.612C1127.16 223.19 1127.05 222.671 1127.05 222.054L1127.08 219.472C1127.09 218.854 1127.21 218.305 1127.45 217.824C1127.7 217.334 1128.03 216.93 1128.47 216.612C1128.91 216.294 1129.42 216.092 1130.01 216.006C1130.59 215.919 1131.1 215.97 1131.53 216.159C1131.96 216.348 1132.3 216.652 1132.53 217.072C1132.76 217.483 1132.87 217.997 1132.86 218.615L1132.84 221.197C1132.84 221.813 1132.71 222.368 1132.46 222.86C1132.22 223.35 1131.88 223.754 1131.44 224.072C1131.01 224.378 1130.5 224.576 1129.91 224.663ZM1129.92 223.995C1130.6 223.894 1131.13 223.609 1131.5 223.138C1131.89 222.667 1132.08 222.056 1132.1 221.307L1132.12 218.725C1132.13 217.975 1131.95 217.421 1131.57 217.063C1131.2 216.704 1130.67 216.574 1130 216.674C1129.33 216.774 1128.8 217.059 1128.41 217.531C1128.03 218.002 1127.83 218.613 1127.82 219.363L1127.79 221.944C1127.78 222.694 1127.96 223.249 1128.33 223.609C1128.7 223.968 1129.23 224.096 1129.92 223.995ZM1144.89 222.292L1145.01 211.205L1145.75 211.095L1145.72 213.374L1145.7 215.045L1146.04 214.995L1145.59 215.971C1145.6 215.282 1145.82 214.698 1146.26 214.219C1146.7 213.739 1147.28 213.446 1147.99 213.341C1148.79 213.222 1149.43 213.39 1149.9 213.846C1150.38 214.301 1150.62 214.978 1150.61 215.879L1150.56 221.452L1149.82 221.562L1149.87 216.095C1149.88 215.345 1149.7 214.791 1149.34 214.43C1148.98 214.059 1148.48 213.921 1147.83 214.016C1147.18 214.113 1146.66 214.403 1146.27 214.886C1145.88 215.367 1145.69 215.977 1145.69 216.715L1145.63 222.182L1144.89 222.292ZM1156.6 220.709C1156.02 220.795 1155.51 220.749 1155.08 220.57C1154.65 220.382 1154.31 220.077 1154.08 219.657C1153.85 219.235 1153.74 218.716 1153.74 218.099L1153.77 215.518C1153.78 214.9 1153.9 214.35 1154.15 213.87C1154.39 213.379 1154.73 212.975 1155.16 212.657C1155.6 212.34 1156.11 212.137 1156.7 212.051C1157.28 211.965 1157.79 212.016 1158.22 212.204C1158.65 212.393 1158.99 212.697 1159.22 213.118C1159.45 213.528 1159.56 214.042 1159.56 214.66L1159.53 217.242C1159.53 217.859 1159.4 218.413 1159.15 218.905C1158.91 219.396 1158.57 219.8 1158.13 220.117C1157.7 220.424 1157.19 220.621 1156.6 220.709ZM1156.61 220.04C1157.29 219.939 1157.82 219.654 1158.19 219.184C1158.58 218.712 1158.78 218.102 1158.79 217.352L1158.81 214.77C1158.82 214.021 1158.64 213.466 1158.26 213.108C1157.89 212.749 1157.36 212.62 1156.69 212.719C1156.02 212.819 1155.49 213.105 1155.1 213.576C1154.72 214.048 1154.52 214.658 1154.51 215.408L1154.48 217.99C1154.47 218.739 1154.65 219.294 1155.02 219.654C1155.39 220.013 1155.92 220.142 1156.61 220.04ZM1162.23 219.724L1162.31 211.371L1162.96 211.275L1162.95 212.414L1163.04 212.401L1163.01 212.617C1163 212.163 1163.12 211.782 1163.37 211.472C1163.63 211.161 1163.97 210.973 1164.41 210.909C1164.83 210.846 1165.17 210.927 1165.43 211.151C1165.69 211.375 1165.85 211.721 1165.9 212.188L1165.84 211.985L1165.96 211.968L1165.93 212.184C1165.92 211.73 1166.04 211.348 1166.29 211.039C1166.54 210.729 1166.88 210.542 1167.31 210.478C1167.81 210.404 1168.19 210.525 1168.46 210.839C1168.73 211.143 1168.86 211.599 1168.84 212.207L1168.78 218.752L1168.06 218.86L1168.12 212.406C1168.12 211.97 1168.03 211.64 1167.85 211.415C1167.66 211.189 1167.41 211.101 1167.08 211.149C1166.73 211.201 1166.46 211.373 1166.25 211.667C1166.04 211.951 1165.93 212.306 1165.92 212.731L1165.86 219.185L1165.15 219.29L1165.21 212.837C1165.21 212.401 1165.12 212.071 1164.94 211.846C1164.75 211.62 1164.5 211.532 1164.17 211.58C1163.85 211.629 1163.58 211.795 1163.37 212.079C1163.16 212.363 1163.04 212.724 1163.01 213.162L1162.95 219.616L1162.23 219.724ZM1174.41 218.07C1173.81 218.159 1173.29 218.115 1172.86 217.936C1172.42 217.747 1172.1 217.442 1171.87 217.02C1171.65 216.599 1171.54 216.08 1171.54 215.463L1171.56 212.881C1171.57 212.263 1171.69 211.714 1171.92 211.235C1172.17 210.745 1172.51 210.341 1172.94 210.023C1173.38 209.705 1173.9 209.502 1174.51 209.412C1175.11 209.323 1175.62 209.373 1176.04 209.563C1176.47 209.754 1176.79 210.059 1177.01 210.481C1177.25 210.891 1177.36 211.406 1177.35 212.024L1177.34 213.466L1172.29 214.214L1172.28 215.353C1172.27 216.081 1172.46 216.631 1172.82 217.001C1173.19 217.371 1173.72 217.504 1174.42 217.402C1174.97 217.32 1175.42 217.116 1175.78 216.79C1176.15 216.463 1176.4 216.051 1176.55 215.554L1177.29 215.444C1177.19 215.904 1177.01 216.32 1176.75 216.692C1176.49 217.064 1176.16 217.37 1175.77 217.611C1175.38 217.841 1174.92 217.994 1174.41 218.07ZM1176.59 213.061L1176.61 212.134C1176.61 211.405 1176.43 210.856 1176.06 210.486C1175.7 210.115 1175.18 209.979 1174.5 210.081C1173.81 210.183 1173.27 210.475 1172.88 210.957C1172.5 211.428 1172.31 212.033 1172.3 212.771L1172.3 213.56L1176.77 212.899L1176.59 213.061ZM1183.1 213.522L1182.92 208.014L1182.95 205.583L1183.87 205.446L1183.84 207.877L1183.55 213.456L1183.1 213.522ZM1183.31 216.675C1183.06 216.712 1182.86 216.666 1182.71 216.536C1182.57 216.406 1182.5 216.214 1182.51 215.96C1182.51 215.707 1182.58 215.494 1182.73 215.321C1182.89 215.146 1183.09 215.04 1183.33 215.004L1183.41 214.993C1183.66 214.956 1183.85 215.003 1183.99 215.134C1184.14 215.263 1184.22 215.454 1184.21 215.708C1184.21 215.961 1184.13 216.175 1183.97 216.349C1183.83 216.523 1183.63 216.628 1183.38 216.664L1183.31 216.675Z"
            fill="white" fill-opacity="0.4" />
        <path
            d="M247.932 219.636C247.35 219.49 246.889 219.251 246.55 218.919C246.223 218.579 246.032 218.17 245.976 217.692C245.93 217.217 246.025 216.694 246.261 216.124L247.273 213.749C247.519 213.182 247.845 212.723 248.253 212.371C248.663 212.01 249.131 211.767 249.658 211.641C250.194 211.517 250.753 211.529 251.335 211.674C252.217 211.896 252.814 212.313 253.124 212.927C253.446 213.533 253.434 214.242 253.086 215.052L252.359 214.869C252.631 214.236 252.648 213.694 252.411 213.243C252.173 212.792 251.72 212.482 251.051 212.315C250.391 212.149 249.788 212.21 249.242 212.495C248.699 212.772 248.285 213.25 248.001 213.932L246.988 216.307C246.706 216.978 246.676 217.553 246.896 218.031C247.117 218.509 247.557 218.831 248.216 218.996C248.886 219.164 249.485 219.118 250.014 218.859C250.555 218.592 250.96 218.148 251.229 217.524L251.957 217.707C251.61 218.517 251.072 219.098 250.344 219.452C249.619 219.796 248.815 219.857 247.932 219.636ZM253.928 220.984L258.278 210.786L259.006 210.968L258.109 213.063L257.446 214.598L257.781 214.682L256.995 215.413C257.267 214.78 257.695 214.325 258.28 214.049C258.874 213.775 259.521 213.726 260.219 213.901C261.005 214.098 261.528 214.497 261.79 215.099C262.061 215.703 262.021 216.42 261.669 217.249L259.487 222.377L258.759 222.195L260.901 217.165C261.197 216.476 261.245 215.895 261.044 215.422C260.855 214.942 260.445 214.623 259.815 214.465C259.175 214.304 258.58 214.372 258.032 214.667C257.494 214.965 257.082 215.455 256.798 216.136L254.656 221.167L253.928 220.984ZM265.163 223.954C264.367 223.755 263.836 223.344 263.57 222.72C263.306 222.087 263.351 221.351 263.706 220.512L264.722 218.122C264.965 217.565 265.282 217.103 265.672 216.737C266.073 216.373 266.522 216.125 267.019 215.992C267.516 215.859 268.032 215.859 268.565 215.993C269.263 216.168 269.752 216.501 270.031 216.994C270.309 217.486 270.313 218.049 270.041 218.682L270.016 217.671L270.278 217.736L270.726 216.689L271.453 216.871L268.182 224.556L267.454 224.374L267.902 223.327L267.495 223.224L268.43 222.454C268.168 223.089 267.73 223.541 267.116 223.81C266.512 224.081 265.861 224.129 265.163 223.954ZM265.567 223.391C266.226 223.556 266.819 223.493 267.346 223.203C267.884 222.905 268.296 222.415 268.58 221.733L269.596 219.344C269.883 218.653 269.926 218.071 269.725 217.598C269.536 217.117 269.112 216.795 268.452 216.629C267.802 216.466 267.208 216.534 266.669 216.832C266.143 217.123 265.736 217.614 265.45 218.305L264.433 220.694C264.149 221.376 264.101 221.956 264.29 222.437C264.491 222.91 264.917 223.228 265.567 223.391ZM271.377 225.357L274.649 217.672L275.376 217.854L274.811 219.182L275.146 219.266L274.407 219.869C274.686 219.207 275.12 218.733 275.707 218.447C276.306 218.154 276.96 218.096 277.668 218.274C278.453 218.471 278.977 218.87 279.239 219.472C279.51 220.076 279.47 220.792 279.117 221.622L276.935 226.75L276.208 226.568L278.35 221.538C278.646 220.849 278.694 220.268 278.493 219.795C278.304 219.315 277.894 218.996 277.264 218.838C276.623 218.677 276.029 218.745 275.481 219.04C274.942 219.338 274.531 219.828 274.247 220.509L272.105 225.539L271.377 225.357ZM282.829 228.382C282.247 228.236 281.787 227.997 281.447 227.664C281.12 227.325 280.929 226.916 280.873 226.438C280.828 225.963 280.922 225.44 281.158 224.87L282.171 222.495C282.416 221.928 282.743 221.468 283.15 221.117C283.56 220.756 284.029 220.512 284.555 220.386C285.091 220.263 285.65 220.274 286.232 220.42C287.115 220.641 287.711 221.059 288.021 221.673C288.343 222.279 288.331 222.987 287.984 223.797L287.256 223.615C287.528 222.982 287.545 222.44 287.308 221.989C287.071 221.538 286.617 221.228 285.948 221.06C285.288 220.895 284.686 220.955 284.14 221.241C283.596 221.517 283.182 221.996 282.898 222.677L281.886 225.053C281.604 225.724 281.573 226.299 281.794 226.777C282.014 227.255 282.454 227.576 283.114 227.742C283.783 227.909 284.382 227.864 284.911 227.605C285.452 227.338 285.857 226.893 286.127 226.27L286.854 226.452C286.507 227.262 285.969 227.844 285.242 228.198C284.516 228.542 283.712 228.603 282.829 228.382ZM291.539 230.565C290.948 230.416 290.487 230.177 290.157 229.847C289.83 229.507 289.643 229.1 289.598 228.624C289.552 228.149 289.647 227.626 289.882 227.057L290.895 224.682C291.14 224.114 291.462 223.654 291.86 223.3C292.27 222.939 292.738 222.695 293.265 222.569C293.791 222.443 294.35 222.455 294.942 222.603C295.533 222.751 295.988 222.994 296.306 223.331C296.623 223.669 296.805 224.075 296.851 224.55C296.909 225.019 296.815 225.536 296.57 226.104L296.005 227.431L291.058 226.191L290.61 227.239C290.328 227.911 290.287 228.488 290.485 228.971C290.684 229.453 291.123 229.78 291.802 229.95C292.345 230.086 292.843 230.072 293.297 229.907C293.76 229.745 294.156 229.463 294.483 229.06L295.211 229.243C294.939 229.628 294.613 229.943 294.232 230.188C293.851 230.433 293.43 230.59 292.969 230.66C292.52 230.723 292.044 230.691 291.539 230.565ZM295.474 226.772L295.842 225.921C296.124 225.25 296.165 224.673 295.967 224.19C295.778 223.709 295.349 223.385 294.68 223.218C294.001 223.047 293.392 223.111 292.853 223.409C292.317 223.698 291.907 224.183 291.623 224.864L291.317 225.591L295.696 226.689L295.474 226.772ZM306.056 234.048L306.322 233.419L309.247 234.152L311.986 227.725L309.425 227.083L309.691 226.454L312.98 227.278L309.974 234.334L312.724 235.023L312.458 235.653L306.056 234.048ZM313.275 225.729C313.023 225.665 312.838 225.542 312.719 225.357C312.6 225.173 312.571 224.959 312.632 224.717C312.693 224.474 312.819 224.3 313.011 224.193C313.202 224.087 313.424 224.065 313.676 224.128C313.929 224.191 314.114 224.315 314.233 224.499C314.351 224.684 314.38 224.897 314.32 225.14C314.259 225.382 314.133 225.557 313.941 225.663C313.749 225.77 313.527 225.792 313.275 225.729ZM318.636 237.201C318.025 237.048 317.618 236.781 317.414 236.4C317.221 236.021 317.246 235.548 317.492 234.981L319.75 229.671L317.422 229.087L317.688 228.458L320.016 229.042L320.912 226.947L321.64 227.129L320.744 229.224L324.017 230.044L323.752 230.674L320.478 229.853L318.219 235.163C317.908 235.91 318.136 236.38 318.902 236.572L320.866 237.064L320.601 237.693L318.636 237.201ZM327.483 236.248L329.425 231.09L330.386 228.857L331.288 229.083L330.327 231.316L327.919 236.357L327.483 236.248ZM326.469 239.241C326.227 239.181 326.061 239.062 325.971 238.885C325.891 238.71 325.901 238.506 326.001 238.273C326.1 238.041 326.251 237.872 326.452 237.768C326.663 237.666 326.89 237.646 327.132 237.706L327.205 237.725C327.448 237.785 327.609 237.903 327.689 238.078C327.778 238.255 327.773 238.46 327.674 238.693C327.574 238.925 327.419 239.093 327.208 239.194C327.007 239.299 326.785 239.32 326.542 239.26L326.469 239.241Z"
            fill="white" fill-opacity="0.4" />
        <path
            d="M1059.68 51.0489L1064.51 41.0669L1065.23 41.2834L1064.23 43.3337L1063.5 44.8356L1063.83 44.9352L1063.01 45.6281C1063.31 45.0087 1063.76 44.575 1064.36 44.3267C1064.96 44.0813 1065.61 44.0625 1066.3 44.2703C1067.08 44.5041 1067.58 44.9276 1067.81 45.5409C1068.06 46.1571 1067.98 46.8711 1067.59 47.6828L1065.17 52.7025L1064.45 52.4861L1066.83 47.5626C1067.16 46.8887 1067.23 46.3108 1067.05 45.8287C1066.89 45.34 1066.49 45.0019 1065.87 44.8143C1065.24 44.6238 1064.64 44.6633 1064.08 44.9326C1063.53 45.2049 1063.1 45.6746 1062.78 46.3418L1060.4 51.2653L1059.68 51.0489ZM1068.08 53.5796L1068.38 52.9636L1071.26 53.8337L1074.3 47.5433L1071.77 46.7814L1072.07 46.1655L1075.32 47.1438L1071.98 54.0502L1074.69 54.8684L1074.4 55.4843L1068.08 53.5796ZM1075.68 45.6099C1075.44 45.5348 1075.26 45.4024 1075.15 45.2126C1075.04 45.0228 1075.02 44.8082 1075.09 44.5689C1075.16 44.3295 1075.3 44.1611 1075.49 44.0637C1075.69 43.9662 1075.91 43.955 1076.16 44.0301C1076.41 44.1051 1076.59 44.2375 1076.7 44.4273C1076.81 44.6171 1076.83 44.8317 1076.76 45.071C1076.68 45.3104 1076.55 45.4788 1076.35 45.5762C1076.16 45.6737 1075.93 45.6849 1075.68 45.6099ZM1080.5 57.3224C1079.89 57.1406 1079.5 56.8547 1079.32 56.4646C1079.14 56.0774 1079.19 55.6062 1079.46 55.051L1081.97 49.8533L1079.67 49.1607L1079.96 48.5447L1082.26 49.2373L1083.26 47.187L1083.97 47.4034L1082.98 49.4538L1086.21 50.4278L1085.92 51.0438L1082.68 50.0697L1080.18 55.2675C1079.83 55.9988 1080.04 56.4785 1080.79 56.7065L1082.73 57.2909L1082.44 57.9068L1080.5 57.3224ZM1092.72 63.8262L1093.03 63.2145L1094.97 63.799C1095.65 64.0039 1096.24 63.985 1096.76 63.7424C1097.27 63.5122 1097.69 63.0779 1097.99 62.4394L1101.26 55.668L1097.67 54.5858L1097.96 53.9698L1102.27 55.2685L1098.71 62.6559C1098.45 63.2044 1098.11 63.635 1097.7 63.9476C1097.28 64.2727 1096.82 64.4728 1096.31 64.5478C1095.79 64.6324 1095.24 64.5866 1094.66 64.4106L1092.72 63.8262ZM1102.65 53.7388C1102.4 53.6638 1102.22 53.5314 1102.11 53.3416C1102 53.1518 1101.99 52.9372 1102.06 52.6979C1102.13 52.4585 1102.26 52.2901 1102.46 52.1927C1102.66 52.0952 1102.88 52.084 1103.13 52.1591C1103.38 52.2341 1103.56 52.3665 1103.67 52.5563C1103.78 52.7461 1103.8 52.9607 1103.72 53.2C1103.65 53.4394 1103.52 53.6078 1103.32 53.7052C1103.12 53.8027 1102.9 53.8139 1102.65 53.7388ZM1105.21 64.9284C1104.43 64.6918 1103.92 64.2558 1103.68 63.6204C1103.45 62.9755 1103.53 62.2424 1103.92 61.4211L1105.05 59.0821C1105.32 58.5365 1105.65 58.0901 1106.06 57.7429C1106.48 57.3987 1106.94 57.1718 1107.44 57.0623C1107.94 56.9528 1108.46 56.9774 1108.99 57.1361C1109.68 57.3439 1110.15 57.7004 1110.4 58.2055C1110.66 58.7106 1110.63 59.2728 1110.33 59.8921L1110.36 58.8807L1110.61 58.9586L1111.11 57.9334L1111.83 58.1499L1108.2 65.6722L1107.48 65.4558L1107.98 64.4306L1107.58 64.3094L1108.55 63.5836C1108.25 64.2059 1107.8 64.6368 1107.17 64.8764C1106.55 65.1188 1105.9 65.1362 1105.21 64.9284ZM1105.64 64.3844C1106.29 64.5807 1106.89 64.546 1107.43 64.2804C1107.98 64.0082 1108.41 63.5385 1108.73 62.8713L1109.86 60.5323C1110.18 59.8555 1110.25 59.2761 1110.07 58.7941C1109.9 58.3054 1109.49 57.9629 1108.84 57.7667C1108.2 57.5733 1107.6 57.6128 1107.05 57.885C1106.51 58.1506 1106.08 58.6218 1105.77 59.2985L1104.64 61.6375C1104.32 62.3047 1104.25 62.8827 1104.41 63.3714C1104.59 63.8534 1105 64.1911 1105.64 64.3844ZM1114.04 67.589C1113.46 67.4158 1113.02 67.1552 1112.69 66.8071C1112.38 66.4523 1112.21 66.0349 1112.18 65.555C1112.15 65.078 1112.27 64.5604 1112.53 64.0024L1113.66 61.6778C1113.93 61.1226 1114.28 60.6791 1114.7 60.3473C1115.13 60.0059 1115.61 59.7848 1116.14 59.6839C1116.68 59.586 1117.24 59.6236 1117.81 59.7967C1118.68 60.0594 1119.26 60.5045 1119.54 61.1323C1119.83 61.7533 1119.79 62.4601 1119.4 63.2527L1118.69 63.0363C1118.99 62.417 1119.03 61.8763 1118.81 61.4144C1118.6 60.9524 1118.16 60.6219 1117.5 60.4227C1116.85 60.2265 1116.24 60.2583 1115.68 60.5181C1115.13 60.7683 1114.69 61.227 1114.38 61.8942L1113.25 64.2188C1112.94 64.8764 1112.88 65.4491 1113.08 65.9369C1113.28 66.4247 1113.7 66.7667 1114.35 66.963C1115.01 67.1621 1115.61 67.1447 1116.15 66.9107C1116.71 66.6701 1117.13 66.2449 1117.43 65.6351L1118.15 65.8516C1117.76 66.6442 1117.2 67.1999 1116.46 67.5189C1115.72 67.8283 1114.91 67.8516 1114.04 67.589ZM1120.01 69.2315L1124.83 59.2496L1125.55 59.4661L1122.77 65.2223L1124.65 65.7894L1128.71 63.2373L1129.58 63.5014L1125.11 66.336L1126.01 71.041L1125.18 70.79L1124.38 66.4141L1122.47 65.8383L1120.73 69.448L1120.01 69.2315ZM1127.38 74.2738L1132.21 64.2919L1132.92 64.5083L1132.43 65.5335L1132.83 65.6547L1131.86 66.3804C1132.16 65.7611 1132.61 65.3288 1133.22 65.0834C1133.84 64.8409 1134.49 64.825 1135.19 65.0357C1135.99 65.2752 1136.5 65.716 1136.72 66.358C1136.96 66.9934 1136.88 67.7217 1136.49 68.543L1135.36 70.882C1135.1 71.4305 1134.76 71.8769 1134.34 72.2212C1133.93 72.5654 1133.47 72.7923 1132.96 72.9018C1132.46 73.0113 1131.95 72.9867 1131.42 72.828C1130.72 72.6173 1130.25 72.2608 1130 71.7586C1129.76 71.2468 1129.78 70.6846 1130.07 70.072L1130.05 71.0834L1129.79 71.0055L1129.29 72.0307L1128.1 74.4903L1127.38 74.2738ZM1131.56 72.1974C1132.2 72.3908 1132.79 72.3547 1133.33 72.0891C1133.88 71.814 1134.31 71.3394 1134.64 70.6656L1135.77 68.3266C1136.1 67.6527 1136.17 67.0747 1135.99 66.5927C1135.82 66.1107 1135.41 65.773 1134.76 65.5797C1134.12 65.3863 1133.53 65.421 1132.98 65.6836C1132.44 65.9492 1132 66.4189 1131.68 67.0928L1130.55 69.4318C1130.22 70.1057 1130.14 70.6884 1130.32 71.18C1130.51 71.6649 1130.92 72.0041 1131.56 72.1974ZM1139.84 75.3674C1139.28 75.1971 1138.84 74.9393 1138.53 74.5941C1138.22 74.2393 1138.04 73.822 1138.01 73.342C1137.99 72.865 1138.11 72.3475 1138.37 71.7894L1139.49 69.4648C1139.76 68.9096 1140.11 68.4661 1140.54 68.1343C1140.96 67.7929 1141.44 67.5718 1141.97 67.4709C1142.51 67.3701 1143.05 67.4048 1143.62 67.5751C1144.18 67.7454 1144.62 68.0079 1144.93 68.3627C1145.24 68.7175 1145.41 69.1349 1145.45 69.6148C1145.48 70.0851 1145.37 70.5979 1145.09 71.1531L1143.97 73.4777C1143.71 74.0357 1143.36 74.484 1142.92 74.8225C1142.5 75.1639 1142.02 75.385 1141.48 75.4859C1140.97 75.58 1140.42 75.5405 1139.84 75.3674ZM1140.14 74.7657C1140.8 74.9649 1141.4 74.9317 1141.94 74.6661C1142.48 74.4034 1142.92 73.9351 1143.25 73.2612L1144.38 70.9366C1144.7 70.2627 1144.77 69.6833 1144.59 69.1984C1144.4 68.7135 1143.98 68.3729 1143.33 68.1767C1142.68 67.9805 1142.08 68.0137 1141.53 68.2764C1140.98 68.539 1140.54 69.0073 1140.21 69.6812L1139.09 72.0058C1138.76 72.6797 1138.68 73.2577 1138.86 73.7397C1139.05 74.2246 1139.47 74.5666 1140.14 74.7657ZM1149.39 78.0878C1148.79 77.906 1148.39 77.62 1148.21 77.23C1148.03 76.8428 1148.08 76.3716 1148.35 75.8164L1150.86 70.6187L1148.56 69.926L1148.85 69.3101L1151.15 70.0027L1152.15 67.9523L1152.86 68.1688L1151.87 70.2191L1155.1 71.1931L1154.81 71.8091L1151.58 70.8351L1149.07 76.0328C1148.72 76.7642 1148.93 77.2438 1149.68 77.4718L1151.62 78.0562L1151.33 78.6722L1149.39 78.0878Z"
            fill="white" fill-opacity="0.6" />
        <circle cx="1245" cy="101" r="8.5" stroke="#FCFCFC" stroke-opacity="0.6" stroke-width="3" />
        <g filter="url(#filter0_f_12_105)">
            <ellipse cx="94.5" cy="344.5" rx="268.5" ry="233.5" fill="url(#paint0_linear_12_105)"
                fill-opacity="0.4" />
        </g>
        <g filter="url(#filter1_f_12_105)">
            <ellipse cx="1376.5" cy="174.5" rx="268.5" ry="233.5" fill="url(#paint1_linear_12_105)"
                fill-opacity="0.6" />
        </g>
    </g>
    <defs>
        <filter id="filter0_f_12_105" x="-374" y="-89" width="937" height="867"
            filterUnits="userSpaceOnUse" color-interpolation-filters="sRGB">
            <feFlood flood-opacity="0" result="BackgroundImageFix" />
            <feBlend mode="normal" in="SourceGraphic" in2="BackgroundImageFix" result="shape" />
            <feGaussianBlur stdDeviation="100" result="effect1_foregroundBlur_12_105" />
        </filter>
        <filter id="filter1_f_12_105" x="908" y="-259" width="937" height="867"
            filterUnits="userSpaceOnUse" color-interpolation-filters="sRGB">
            <feFlood flood-opacity="0" result="BackgroundImageFix" />
            <feBlend mode="normal" in="SourceGraphic" in2="BackgroundImageFix" result="shape" />
            <feGaussianBlur stdDeviation="100" result="effect1_foregroundBlur_12_105" />
        </filter>
        <linearGradient id="paint0_linear_12_105" x1="94.5" y1="111" x2="94.5" y2="578"
            gradientUnits="userSpaceOnUse">
            <stop offset="0.270833" stop-color="#06F55B" />
            <stop offset="0.552083" stop-color="#1DB954" stop-opacity="0" />
        </linearGradient>
        <linearGradient id="paint1_linear_12_105" x1="1376.5" y1="-59" x2="1376.5" y2="408"
            gradientUnits="userSpaceOnUse">
            <stop offset="0.270833" stop-color="#06F55B" />
            <stop offset="0.552083" stop-color="#1DB954" stop-opacity="0" />
        </linearGradient>
        <clipPath id="clip0_12_105">
            <rect width="1400" height="275" rx="13.414" fill="white" />
        </clipPath>
    </defs>
</svg>