<svg width="17" height="16" viewBox="0 0 17 16" fill="none" xmlns="http://www.w3.org/2000/svg">
<g clip-path="url(#clip0_136_47622)">
<path d="M1.79004 2C1.79004 1.73478 1.8954 1.48043 2.08293 1.29289C2.27047 1.10536 2.52482 1 2.79004 1H4.79004C5.05526 1 5.30961 1.10536 5.49715 1.29289C5.68468 1.48043 5.79004 1.73478 5.79004 2V4C5.79004 4.26522 5.68468 4.51957 5.49715 4.70711C5.30961 4.89464 5.05526 5 4.79004 5H2.79004C2.52482 5 2.27047 4.89464 2.08293 4.70711C1.8954 4.51957 1.79004 4.26522 1.79004 4V2ZM6.79004 2C6.79004 1.73478 6.8954 1.48043 7.08293 1.29289C7.27047 1.10536 7.52482 1 7.79004 1H9.79004C10.0553 1 10.3096 1.10536 10.4971 1.29289C10.6847 1.48043 10.79 1.73478 10.79 2V4C10.79 4.26522 10.6847 4.51957 10.4971 4.70711C10.3096 4.89464 10.0553 5 9.79004 5H7.79004C7.52482 5 7.27047 4.89464 7.08293 4.70711C6.8954 4.51957 6.79004 4.26522 6.79004 4V2ZM11.79 2C11.79 1.73478 11.8954 1.48043 12.0829 1.29289C12.2705 1.10536 12.5248 1 12.79 1H14.79C15.0553 1 15.3096 1.10536 15.4971 1.29289C15.6847 1.48043 15.79 1.73478 15.79 2V4C15.79 4.26522 15.6847 4.51957 15.4971 4.70711C15.3096 4.89464 15.0553 5 14.79 5H12.79C12.5248 5 12.2705 4.89464 12.0829 4.70711C11.8954 4.51957 11.79 4.26522 11.79 4V2ZM1.79004 7C1.79004 6.73478 1.8954 6.48043 2.08293 6.29289C2.27047 6.10536 2.52482 6 2.79004 6H4.79004C5.05526 6 5.30961 6.10536 5.49715 6.29289C5.68468 6.48043 5.79004 6.73478 5.79004 7V9C5.79004 9.26522 5.68468 9.51957 5.49715 9.70711C5.30961 9.89464 5.05526 10 4.79004 10H2.79004C2.52482 10 2.27047 9.89464 2.08293 9.70711C1.8954 9.51957 1.79004 9.26522 1.79004 9V7ZM6.79004 7C6.79004 6.73478 6.8954 6.48043 7.08293 6.29289C7.27047 6.10536 7.52482 6 7.79004 6H9.79004C10.0553 6 10.3096 6.10536 10.4971 6.29289C10.6847 6.48043 10.79 6.73478 10.79 7V9C10.79 9.26522 10.6847 9.51957 10.4971 9.70711C10.3096 9.89464 10.0553 10 9.79004 10H7.79004C7.52482 10 7.27047 9.89464 7.08293 9.70711C6.8954 9.51957 6.79004 9.26522 6.79004 9V7ZM11.79 7C11.79 6.73478 11.8954 6.48043 12.0829 6.29289C12.2705 6.10536 12.5248 6 12.79 6H14.79C15.0553 6 15.3096 6.10536 15.4971 6.29289C15.6847 6.48043 15.79 6.73478 15.79 7V9C15.79 9.26522 15.6847 9.51957 15.4971 9.70711C15.3096 9.89464 15.0553 10 14.79 10H12.79C12.5248 10 12.2705 9.89464 12.0829 9.70711C11.8954 9.51957 11.79 9.26522 11.79 9V7ZM1.79004 12C1.79004 11.7348 1.8954 11.4804 2.08293 11.2929C2.27047 11.1054 2.52482 11 2.79004 11H4.79004C5.05526 11 5.30961 11.1054 5.49715 11.2929C5.68468 11.4804 5.79004 11.7348 5.79004 12V14C5.79004 14.2652 5.68468 14.5196 5.49715 14.7071C5.30961 14.8946 5.05526 15 4.79004 15H2.79004C2.52482 15 2.27047 14.8946 2.08293 14.7071C1.8954 14.5196 1.79004 14.2652 1.79004 14V12ZM6.79004 12C6.79004 11.7348 6.8954 11.4804 7.08293 11.2929C7.27047 11.1054 7.52482 11 7.79004 11H9.79004C10.0553 11 10.3096 11.1054 10.4971 11.2929C10.6847 11.4804 10.79 11.7348 10.79 12V14C10.79 14.2652 10.6847 14.5196 10.4971 14.7071C10.3096 14.8946 10.0553 15 9.79004 15H7.79004C7.52482 15 7.27047 14.8946 7.08293 14.7071C6.8954 14.5196 6.79004 14.2652 6.79004 14V12ZM11.79 12C11.79 11.7348 11.8954 11.4804 12.0829 11.2929C12.2705 11.1054 12.5248 11 12.79 11H14.79C15.0553 11 15.3096 11.1054 15.4971 11.2929C15.6847 11.4804 15.79 11.7348 15.79 12V14C15.79 14.2652 15.6847 14.5196 15.4971 14.7071C15.3096 14.8946 15.0553 15 14.79 15H12.79C12.5248 15 12.2705 14.8946 12.0829 14.7071C11.8954 14.5196 11.79 14.2652 11.79 14V12Z" fill="#828282"/>
</g>
<defs>
<clipPath id="clip0_136_47622">
<rect width="16" height="16" fill="white" transform="translate(0.790039)"/>
</clipPath>
</defs>
</svg>
