<svg width="24" height="24" viewBox="0 0 24 24" fill="none" xmlns="http://www.w3.org/2000/svg">
<path d="M13.5757 17.2706L8.46571 14.4836C7.97521 14.9705 7.35153 15.3013 6.6733 15.4342C5.99508 15.5672 5.29267 15.4964 4.65464 15.2307C4.0166 14.9651 3.4715 14.5164 3.08806 13.9414C2.70462 13.3664 2.5 12.6908 2.5 11.9996C2.5 11.3085 2.70462 10.6328 3.08806 10.0578C3.4715 9.4828 4.0166 9.03419 4.65464 8.76852C5.29267 8.50286 5.99508 8.43204 6.6733 8.56499C7.35153 8.69795 7.97521 9.02873 8.46571 9.51562L13.5757 6.72862C13.4005 5.90636 13.527 5.04848 13.9323 4.31188C14.3376 3.57527 14.9945 3.00915 15.7828 2.71706C16.5712 2.42496 17.4383 2.4264 18.2257 2.72111C19.0131 3.01582 19.6681 3.58411 20.0709 4.32206C20.4737 5.06001 20.5975 5.9183 20.4195 6.73998C20.2415 7.56165 19.7737 8.29181 19.1016 8.79692C18.4295 9.30204 17.5981 9.54835 16.7593 9.49082C15.9206 9.43329 15.1305 9.07577 14.5337 8.48362L9.42371 11.2706C9.5255 11.751 9.5255 12.2473 9.42371 12.7276L14.5337 15.5156C15.1305 14.9235 15.9206 14.566 16.7593 14.5084C17.5981 14.4509 18.4295 14.6972 19.1016 15.2023C19.7737 15.7074 20.2415 16.4376 20.4195 17.2593C20.5975 18.0809 20.4737 18.9392 20.0709 19.6772C19.6681 20.4151 19.0131 20.9834 18.2257 21.2781C17.4383 21.5728 16.5712 21.5743 15.7828 21.2822C14.9945 20.9901 14.3376 20.424 13.9323 19.6874C13.527 18.9508 13.4005 18.0929 13.5757 17.2706Z" fill="#DADADA"/>
</svg>
